HIERARCHY
ROOT root
{
	OFFSET	0	13.1	24.9
	CHANNELS 6  Xposition Yposition Zposition Xrotation Yrotation Zrotation
	JOINT spine_1
	{
		OFFSET	0	9.99999	0
		CHANNELS 3  Xrotation Yrotation Zrotation
		JOINT spine_2
		{
			OFFSET	0	112	-10
			CHANNELS 3  Xrotation Yrotation Zrotation
			JOINT spine_3
			{
				OFFSET	0	206.5	19.3
				CHANNELS 3  Xrotation Yrotation Zrotation
				JOINT spine_4
				{
					OFFSET	0	110.4	14.6
					CHANNELS 3  Xrotation Yrotation Zrotation
					JOINT neck_1
					{
						OFFSET	0	71.8	-50.3
						CHANNELS 3  Xrotation Yrotation Zrotation
						JOINT neck_2
						{
							OFFSET	0	86.2	-25.8
							CHANNELS 3  Xrotation Yrotation Zrotation
							JOINT head_ee
							{
								OFFSET	0	179.8	-8.7
								CHANNELS 3  Xrotation Yrotation Zrotation
								End Site
								{
									OFFSET	1	0	0
								}
							}
						}
					}
					JOINT left_clavicle
					{
						OFFSET	-43.2	22.4	-70.8
						CHANNELS 3  Xrotation Yrotation Zrotation
						JOINT left_shoulder
						{
							OFFSET	-93.9	-5.79999	48.7
							CHANNELS 3  Xrotation Yrotation Zrotation
							JOINT left_elbow
							{
								OFFSET	-291.4	-30.8	15.2
								CHANNELS 3  Xrotation Yrotation Zrotation
								JOINT left_lowarm_twist
								{
									OFFSET	-110.7	-3.89999	13.6
									CHANNELS 3  Xrotation Yrotation Zrotation
									JOINT left_hand
									{
										OFFSET	-110.7	-3.89999	13.6
										CHANNELS 3  Xrotation Yrotation Zrotation
										JOINT left_ee
										{
											OFFSET	-80.8	-5.10001	12.1
											CHANNELS 3  Xrotation Yrotation Zrotation
											End Site
											{
												OFFSET	1	0	0
											}
										}
									}
								}
							}
						}
					}
					JOINT right_clavicle
					{
						OFFSET	43.2	22.4	-70.8
						CHANNELS 3  Xrotation Yrotation Zrotation
						JOINT right_shoulder
						{
							OFFSET	93.9	-5.79999	48.7
							CHANNELS 3  Xrotation Yrotation Zrotation
							JOINT right_elbow
							{
								OFFSET	291.4	-30.8	15.2
								CHANNELS 3  Xrotation Yrotation Zrotation
								JOINT right_lowarm_twist
								{
									OFFSET	110.7	-3.89999	13.6
									CHANNELS 3  Xrotation Yrotation Zrotation
									JOINT right_hand
									{
										OFFSET	110.7	-3.89999	13.6
										CHANNELS 3  Xrotation Yrotation Zrotation
										JOINT right_ee
										{
											OFFSET	80.8	-5.10001	12.1
											CHANNELS 3  Xrotation Yrotation Zrotation
											End Site
											{
												OFFSET	1	0	0
											}
										}
									}
								}
							}
						}
					}
				}
			}
		}
	}
	JOINT left_hip
	{
		OFFSET	-82.8	-127.5	0.300001
		CHANNELS 3  Xrotation Yrotation Zrotation
		JOINT left_knee
		{
			OFFSET	-28.2	-396.7	2.2
			CHANNELS 3  Xrotation Yrotation Zrotation
			JOINT left_ankle
			{
				OFFSET	-11.7	-411.3	35.4
				CHANNELS 3  Xrotation Yrotation Zrotation
				JOINT left_toes
				{
					OFFSET	0	-60	-88.6
					CHANNELS 3  Xrotation Yrotation Zrotation
					JOINT left_foot_ee
					{
						OFFSET	-22.5	-16.5	-42.2
						CHANNELS 3  Xrotation Yrotation Zrotation
						End Site
						{
							OFFSET	1	0	0
						}
					}
				}
			}
		}
	}
	JOINT right_hip
	{
		OFFSET	82.8	-127.5	0.300001
		CHANNELS 3  Xrotation Yrotation Zrotation
		JOINT right_knee
		{
			OFFSET	28.2	-396.7	2.2
			CHANNELS 3  Xrotation Yrotation Zrotation
			JOINT right_ankle
			{
				OFFSET	11.7	-411.3	35.4
				CHANNELS 3  Xrotation Yrotation Zrotation
				JOINT right_toes
				{
					OFFSET	0	-60	-88.6
					CHANNELS 3  Xrotation Yrotation Zrotation
					JOINT right_foot_ee
					{
						OFFSET	22.5	-16.5	-42.2
						CHANNELS 3  Xrotation Yrotation Zrotation
						End Site
						{
							OFFSET	1	0	0
						}
					}
				}
			}
		}
	}
}
MOTION
Frames: 16
Frame Time: 0.02
2024.87 666.844 -1402.51 -48.8216 81.1369 50.8982 1.98732 0.336665 -0.119327 1.98726 0.343576 -0.0976619 1.98667 0.355407 -0.0356098 1.98683 0.345323 -0.0912935 -15.9905 7.22458 2.44714 -16.124 12.4393 4.83199 -0.0 0.0 -0.0 -0.110189 23.2817 2.54334 -28.2473 -13.7642 69.9295 0.406827 -11.3944 0.0405869 -47.5547 -3.78802 4.54894 -0.47429 6.33464 -0.453137 -0.0 0.0 -0.0 11.685 16.4677 -23.4197 2.46664 45.6766 -49.48 1.83806 42.3144 -0.711408 77.2943 3.53028 8.44995 3.84552 25.7946 -14.0213 0.0 0.0 0.0 32.4043 -11.6233 -8.33695 2.11452 -0.0928327 -0.311169 -11.3435 6.64892 1.69512 1.12205 -0.0 -0.0 -0.0 0.0 -0.0 -10.1421 -9.32567 1.59417 -12.621 -0.310569 -1.90807 37.4582 28.4801 5.56059 -3.16937 0.0 0.0 0.0 0.0 0.0 
2012.66 669.011 -1394.36 -49.2424 80.0733 51.7082 2.12185 0.310714 -0.0780205 2.1218 0.315049 -0.0580907 2.12148 0.32035 -0.00243721 2.12162 0.315945 -0.0530005 -13.3219 7.69668 1.34808 -13.4478 13.82 3.63764 -0.0 0.0 -0.0 0.341232 23.3435 3.16939 -27.0016 -14.4071 70.1477 0.393909 -11.0416 0.0380738 -47.8347 -3.82021 4.56489 -0.388882 7.62918 0.651753 -0.0 0.0 -0.0 11.6152 17.145 -23.2277 1.56246 45.3953 -48.6696 1.88118 42.9762 -0.740623 77.2863 3.52938 8.44946 3.62589 23.659 -13.733 0.0 0.0 0.0 32.2839 -11.5816 -8.16296 1.93981 -0.0847273 -0.285589 -14.1331 7.94 2.11709 0.57158 -0.0 -0.0 -0.0 0.0 -0.0 -9.91677 -11.5366 1.19122 -11.6331 -0.301508 -1.75677 37.4383 25.9515 5.40606 -2.5746 0.0 0.0 0.0 0.0 0.0 
1996.11 672.322 -1388.25 -51.2881 79.2558 53.4636 2.14156 0.278753 0.05844 2.14152 0.274469 0.0760595 2.14189 0.257112 0.122523 2.14198 0.273235 0.0803787 -10.2198 9.08546 2.01388 -10.2969 15.7739 4.27111 -0.0 0.0 -0.0 0.210681 24.0131 3.05909 -24.9086 -16.066 70.0048 0.392497 -11.003 0.0378039 -48.8446 -3.937 4.62111 -0.154822 10.9737 3.54783 -0.0 0.0 -0.0 12.1273 16.2075 -24.4427 1.107 44.1194 -48.6234 1.94721 43.9627 -0.786052 75.9513 3.38015 8.36527 3.23614 19.8391 -13.1053 0.0 0.0 0.0 31.6408 -11.5027 -7.39845 2.005 -0.0877428 -0.295137 -10.4019 9.32744 1.55167 -1.30158 0.0 0.0 -0.0 0.0 -0.0 -7.3527 -9.57337 2.83627 -17.5112 -0.316962 -2.65813 36.3856 20.0861 5.01557 -0.534445 0.0 0.0 0.0 0.0 0.0 
1970.86 681.832 -1379.65 -49.1885 78.9368 51.2819 2.05174 0.24903 0.13525 2.05172 0.239918 0.150823 2.05236 0.209818 0.190486 2.05239 0.237268 0.154958 -8.29487 9.18243 1.47389 -8.32767 16.1371 3.50963 -0.0 0.0 -0.0 0.734677 23.9558 3.76271 -25.0823 -16.8222 69.5215 0.462709 -12.9101 0.0523517 -49.856 -4.05492 4.67535 -0.24581 10.2692 2.67685 -0.0 0.0 -0.0 12.0285 15.7031 -24.237 -0.859872 43.7819 -49.2119 1.95579 44.0885 -0.79201 74.7334 3.24575 8.28546 3.62764 21.4841 -14.9044 0.0 0.0 0.0 29.5267 -9.99874 -6.48144 2.77053 -0.123965 -0.407003 -7.38621 10.559 1.09754 -3.56773 0.0 0.0 -0.0 0.0 -0.0 -7.17098 -9.84013 3.75463 -19.1166 -0.305103 -2.90415 34.0734 17.0859 4.66873 1.81656 -0.0 -0.0 0.0 0.0 0.0 
1946.95 685.73 -1376.25 -51.5537 79.1501 53.819 1.97979 0.259761 0.300707 1.9798 0.2401 0.316627 1.98115 0.180539 0.353986 1.98105 0.234179 0.321031 -4.73523 9.27434 1.44324 -4.67476 15.9495 3.04176 -0.0 0.0 -0.0 0.674867 24.4164 3.72246 -24.621 -18.2641 68.2701 0.571405 -15.8047 0.0793137 -50.6064 -4.14302 4.71424 -0.282531 12.742 3.46167 -0.0 0.0 -0.0 11.9949 14.4463 -24.2039 -0.843114 40.69 -50.8139 2.10706 46.2214 -0.899286 73.3332 3.09337 8.19021 3.70853 20.621 -15.9103 0.0 0.0 0.0 27.7489 -10.1766 -6.2886 3.24518 -0.147176 -0.476121 -4.48188 10.4277 0.662562 -4.94989 0.0 0.0 -0.0 0.0 -0.0 -6.63964 -10.4818 4.14905 -21.9061 -0.268123 -3.33054 33.2836 13.0059 4.46479 3.08387 -0.0 -0.0 0.0 0.0 0.0 
1932.21 690.587 -1372.24 -54.0889 79.1543 55.9889 1.89139 0.329635 0.404818 1.89143 0.303207 0.424972 1.89371 0.222847 0.472096 1.89352 0.294608 0.430978 -3.49211 10.2371 1.77674 -3.38325 17.3071 3.38247 -0.0 0.0 -0.0 0.669682 24.3668 3.71111 -23.6566 -19.5639 67.7313 0.664921 -18.231 0.106689 -51.6867 -4.27072 4.7682 -0.276999 14.185 4.08592 -0.0 0.0 -0.0 11.9163 14.5728 -24.0208 -3.01912 39.9524 -49.2982 2.16561 47.005 -0.941838 73.0914 3.0673 8.17339 3.48216 19.0671 -15.1722 0.0 0.0 0.0 27.4376 -9.91154 -5.47789 2.99959 -0.135095 -0.440382 -2.56113 10.829 0.377268 -6.02849 0.0 0.0 -0.0 0.0 -0.0 -5.6954 -10.8126 5.45899 -21.4851 -0.275034 -3.2663 31.7002 7.30018 4.1776 3.44379 -0.0 -0.0 0.0 0.0 0.0 
1917.15 694.193 -1369.66 -56.2022 79.3136 58.1844 1.79 0.334615 0.46317 1.79007 0.304465 0.483523 1.79268 0.212743 0.530314 1.79241 0.293826 0.490061 -3.57434 10.5267 2.38574 -3.46424 17.3795 4.06503 -0.0 0.0 -0.0 0.62273 24.1259 3.62642 -22.7755 -20.2866 66.3847 0.752737 -20.4496 0.135777 -52.2873 -4.34214 4.79715 -0.221066 15.834 5.09957 -0.0 0.0 -0.0 11.7888 14.2816 -23.7391 -3.00041 38.6018 -50.3929 2.15054 46.8054 -0.930833 73.0603 3.06395 8.17121 3.09893 17.581 -13.2988 0.0 0.0 0.0 26.3786 -9.71085 -4.99563 3.59939 -0.16487 -0.527577 -0.363125 11.1809 0.0532474 -6.97553 0.0 0.0 -0.0 0.0 -0.0 -5.2644 -11.1028 5.74175 -22.8888 -0.250157 -3.48025 30.6455 4.1567 4.02012 2.79474 -0.0 -0.0 0.0 0.0 0.0 
1898.76 695.375 -1369.56 -56.9484 79.2081 58.9218 1.80025 0.253346 0.442952 1.80033 0.224646 0.458175 1.80215 0.138848 0.49103 1.80188 0.214654 0.46294 -3.84356 10.4418 2.65923 -3.74282 17.0533 4.367 -0.0 0.0 -0.0 0.720857 23.6873 3.72048 -19.5703 -21.8244 65.9592 0.833561 -22.4366 0.165329 -53.4268 -4.47845 4.85002 -0.395211 17.764 4.80894 -0.0 0.0 -0.0 11.4978 14.3107 -23.0777 -0.986695 38.2609 -53.7679 1.93414 43.77 -0.776993 70.8457 2.82859 8.01195 3.30808 17.148 -14.9461 0.0 0.0 0.0 25.4888 -9.23504 -4.87891 4.83714 -0.229198 -0.706525 -0.201178 12.2215 0.0295196 -8.07853 0.0 0.0 -0.0 0.0 -0.0 -4.50128 -11.2632 6.39757 -25.7934 -0.182068 -3.92075 30.732 0.89649 3.99502 3.2071 -0.0 -0.0 0.0 0.0 0.0 
1888.05 694.396 -1363.78 -56.135 79.5502 58.1839 1.85836 0.188596 0.523823 1.8585 0.154882 0.534762 1.85996 0.0570371 0.55381 1.85956 0.143784 0.537852 -4.23917 10.3736 2.85037 -4.14957 16.8407 4.60032 -0.0 0.0 -0.0 0.929403 23.4512 3.98538 -16.741 -22.9968 65.3594 0.898972 -24.0043 0.191121 -54.1713 -4.56807 4.88309 -0.422353 19.3415 5.28108 -0.0 0.0 -0.0 11.0017 15.185 -21.9261 0.132421 37.1892 -55.6297 1.72679 40.5403 -0.637779 69.5036 2.68902 7.91107 3.35141 16.4335 -15.5995 0.0 0.0 0.0 24.5345 -8.9935 -4.66678 5.62562 -0.272193 -0.819794 -0.0448724 12.9364 0.00658791 -8.84756 0.0 0.0 -0.0 0.0 -0.0 -4.40231 -11.246 6.58602 -27.2693 -0.138934 -4.14313 30.4621 -2.65107 3.94432 3.23994 -0.0 -0.0 0.0 0.0 0.0 
1869.66 695.113 -1359.84 -62.117 81.1405 64.475 1.86794 -0.182919 0.675671 1.86817 -0.225542 0.662663 1.86551 -0.34006 0.611844 1.86507 -0.239165 0.657869 -5.22599 10.0864 2.99596 -5.1642 16.3454 4.81891 -0.0 0.0 -0.0 1.32134 22.94 4.48641 -12.8296 -25.2957 65.2226 0.844074 -22.6911 0.169363 -54.733 -4.63594 4.90726 -0.637524 21.3434 4.81415 -0.0 0.0 -0.0 10.3868 15.3762 -20.5387 -0.492988 35.941 -57.5722 1.5978 38.3588 -0.5558 68.2135 2.55713 7.81106 3.41008 15.4444 -16.4953 0.0 0.0 0.0 22.7417 -8.67723 -4.02159 5.0493 -0.240613 -0.737059 4.61244 12.5391 -0.668793 -9.27206 0.0 0.0 -0.0 0.0 -0.0 -4.6612 -11.1641 6.87775 -28.3895 -0.102374 -4.31117 29.7345 -4.75361 3.86077 2.4767 -0.0 -0.0 0.0 0.0 0.0 
1853.36 704.9 -1352.42 -63.8663 81.6235 66.6673 1.73975 -0.236945 0.592027 1.7399 -0.274136 0.57575 1.7371 -0.373541 0.516825 1.73684 -0.287231 0.569331 -5.87715 9.65797 2.63558 -5.83761 15.9096 4.45564 -0.0 0.0 -0.0 1.91386 22.5844 5.28924 -10.4511 -27.1222 65.0598 0.799625 -21.6089 0.152604 -55.1166 -4.68244 4.92339 -0.760944 22.5724 4.59784 -0.0 0.0 -0.0 10.018 15.7122 -19.7009 -2.18532 34.2682 -58.1311 1.49191 36.4639 -0.491462 67.0111 2.43627 7.7152 3.43434 14.8895 -16.9374 0.0 0.0 0.0 21.1203 -8.47779 -3.84886 4.53075 -0.212914 -0.662356 8.09429 12.3454 -1.16123 -9.40505 0.0 0.0 -0.0 0.0 -0.0 -3.51099 -11.0581 6.97584 -29.295 -0.0704233 -4.44646 28.5537 -7.83213 3.73283 1.70209 -0.0 -0.0 0.0 0.0 0.0 
1828.55 707.836 -1347.61 -65.6656 82.8763 68.3236 1.62749 -0.3476 0.611843 1.62761 -0.385828 0.588485 1.62359 -0.486708 0.508226 1.62345 -0.400337 0.578713 -6.15407 8.73685 0.905847 -6.13237 15.5052 2.57516 -0.0 0.0 -0.0 2.3049 23.3895 5.87103 -7.46342 -29.5789 65.1659 0.651222 -17.8796 0.102443 -55.7942 -4.76482 4.95111 -0.872098 23.5215 4.34996 -0.0 0.0 -0.0 9.21803 15.6043 -17.9339 -4.41976 33.2756 -59.6349 1.51676 36.9172 -0.506309 65.0309 2.2417 7.55191 3.41807 14.1961 -17.1626 0.0 0.0 0.0 18.8893 -8.35223 -2.86781 0.509998 -0.0213362 -0.0753539 13.9207 11.1947 -1.95419 -9.58851 0.0 0.0 -0.0 0.0 -0.0 -3.60191 -7.96601 7.39483 -32.255 0.04889 -4.88498 29.7514 -11.0751 3.87557 2.42923 -0.0 -0.0 0.0 0.0 0.0 
1809.98 708.276 -1344.09 -62.9183 83.281 65.5635 1.52409 -0.371346 0.533541 1.52415 -0.404543 0.508831 1.5205 -0.491343 0.425613 1.52049 -0.41796 0.497869 -6.30882 7.79138 0.134975 -6.29273 14.3296 1.63633 -0.0 0.0 -0.0 2.35219 23.8906 5.95624 -4.0998 -31.8063 65.7845 0.606957 -16.7345 0.0892741 -56.3584 -4.83366 4.97345 -0.81203 23.1631 4.54662 -0.0 0.0 -0.0 8.90968 15.4154 -17.2648 -6.31126 32.3915 -60.2244 1.47538 36.1593 -0.481674 62.9166 2.04036 7.3703 3.31824 13.477 -16.8114 0.0 0.0 0.0 17.5921 -7.1924 -2.76379 -2.35837 0.089894 0.350742 16.9378 10.3253 -2.34722 -9.56461 0.0 0.0 -0.0 0.0 -0.0 -3.54544 -6.16409 6.92785 -34.3005 0.144528 -5.18423 30.3761 -13.4315 3.96036 2.98222 -0.0 -0.0 0.0 0.0 0.0 
1793.72 705.738 -1338.63 -56.3303 83.8362 58.9204 1.50507 -0.325787 0.432901 1.5051 -0.352673 0.411294 1.50253 -0.422499 0.339169 1.50255 -0.363631 0.401638 -7.96253 6.89059 -0.818962 -7.97561 13.4387 0.690049 -0.0 0.0 -0.0 2.51566 23.0129 6.14807 -0.960466 -33.643 66.2115 0.588615 -16.2559 0.084066 -56.0441 -4.79529 4.96109 -0.531586 20.5842 5.13083 -0.0 0.0 -0.0 8.57298 14.8295 -16.5567 -8.29952 31.6716 -61.0569 1.4393 35.4863 -0.460558 60.7368 1.83996 7.17548 3.25885 12.2111 -16.9978 0.0 0.0 0.0 16.2144 -7.03514 -2.19773 -5.88372 0.197147 0.881061 22.479 7.31124 -3.03331 -10.2699 0.0 0.0 -0.0 0.0 -0.0 -2.64653 -2.97051 7.27923 -36.6093 0.265263 -5.51775 28.1485 -15.1731 3.73099 3.59162 -0.0 -0.0 0.0 0.0 0.0 
1779.44 706.443 -1332.69 -52.4761 83.6079 54.7754 1.5573 -0.232608 0.504408 1.5574 -0.264233 0.488585 1.55511 -0.34944 0.431771 1.55496 -0.276866 0.481539 -8.43103 6.12412 -1.28029 -8.44557 12.3483 0.114123 -0.0 0.0 -0.0 2.98913 21.2727 6.76465 1.12499 -35.1329 66.313 0.596369 -16.4585 0.0862499 -55.8814 -4.77545 4.95461 -0.222251 17.2136 5.64305 -0.0 0.0 -0.0 8.31287 15.0294 -15.9784 -10.4378 31.0104 -61.6616 1.33142 33.405 -0.399525 59.4685 1.72684 7.05869 3.16056 11.8177 -16.493 0.0 0.0 0.0 15.3626 -8.57071 -1.32898 -7.70748 0.239766 1.15768 23.8691 5.85005 -3.19897 -10.4274 0.0 0.0 -0.0 0.0 -0.0 -1.7432 -0.653922 7.37357 -38.8311 0.394081 -5.83396 27.1025 -17.174 3.63375 4.13763 -0.0 -0.0 0.0 0.0 0.0 
1758.39 709.134 -1327.75 -41.1497 83.3742 43.0574 1.52461 -0.0527268 0.545138 1.52477 -0.087308 0.540679 1.52394 -0.185362 0.515362 1.52358 -0.101645 0.538167 -8.52741 6.68972 -2.44109 -8.53578 14.2183 -0.892324 -0.0 0.0 -0.0 2.93247 20.2633 6.65375 1.45336 -36.1459 65.5631 0.649227 -17.8283 0.101832 -55.499 -4.72889 4.93915 -0.191321 10.5791 3.15308 -0.0 0.0 -0.0 7.78663 14.7653 -14.8477 -12.6796 31.8231 -63.0002 1.2344 31.4439 -0.347497 58.7062 1.66011 6.9873 3.04594 10.0652 -16.4982 0.0 0.0 0.0 11.5771 -7.26278 -0.800444 -4.33647 0.154097 0.647518 25.6001 4.44666 -3.40233 -16.9849 0.0 0.0 -0.0 0.0 -0.0 -0.946988 2.06923 7.11217 -39.5592 0.438965 -5.93649 28.5203 -21.6391 3.86482 1.37632 -0.0 -0.0 0.0 0.0 0.0 
